Patient4_TMGait_0pt7_01_right_46_GRF.mot
version=1
nRows=78
nColumns=19
inDegrees=no
endheader
time	F1x	F1y	F1z	M1x	M1y	M1z	F2x	F2y	F2z	M2x	M2y	M2z	EC1x	EC1y	EC1z	EC2x	EC2y	EC2z
52.8	-38.8383	796.3788	87.062	-279.8875	-103.6981	879.261	6.4589	0.84951	-21.966	5.0897	9.6412	-11.3306	-0.0592	0.0182	-0.0073	-0.0462	0.0165	0.9585
52.8116	-27.9134	784.8084	85.6037	-275.4235	-98.7325	865.9101	3.9476	1.3584	-14.8405	3.7278	6.6572	-6.4837	-0.0592	0.0182	-0.0073	-0.0462	0.0165	0.9585
52.8231	-17.6055	771.8652	84.1204	-270.286	-93.7562	849.8904	1.9355	1.8388	-8.8367	2.5923	4.1473	-2.373	-0.0592	0.0182	-0.0073	-0.0462	0.0165	0.9585
52.8347	-8.4942	758.3055	82.5998	-264.7964	-88.9338	832.0793	0.4727	2.2774	-4.2681	1.7497	2.2338	0.80682	-0.0592	0.0182	-0.0073	-0.0462	0.0165	0.9585
52.8463	-0.79402	744.897	81.0469	-259.294	-84.3696	813.5234	-0.49217	2.6433	-1.1196	1.1853	0.91745	3.0548	-0.0592	0.0182	-0.0073	-0.0462	0.0165	0.9585
52.8579	5.4986	732.2724	79.4569	-254.0775	-80.1046	795.1322	-1.064	2.9444	0.82893	0.85608	0.10539	4.5118	-0.0592	0.0182	-0.0073	-0.0462	0.0165	0.9585
52.8694	10.5596	720.9371	77.8039	-249.3902	-76.1161	777.7	-1.3658	3.1441	1.8514	0.6909	-0.30909	5.301	-0.0592	0.0182	-0.0073	-0.0462	0.0165	0.9585
52.881	14.6404	711.3219	76.1056	-245.4252	-72.3831	761.8737	-1.4977	3.2068	2.2293	0.61597	-0.44214	5.551	-0.0592	0.0182	-0.0073	-0.0462	0.0165	0.9585
52.8926	18.0096	703.7642	74.3304	-242.3246	-68.8199	748.1199	-1.5374	3.0649	2.1959	0.55533	-0.3837	5.3154	-0.0592	0.0182	-0.0073	-0.0462	0.0165	0.9585
52.9041	20.9212	698.5121	72.5393	-240.1779	-65.4182	736.7757	-1.5393	2.6304	1.926	0.43877	-0.20261	4.5974	-0.0592	0.0182	-0.0073	-0.0462	0.0165	0.9585
52.9157	23.5932	695.6887	70.7212	-239.0237	-62.1089	727.9739	-1.5142	1.8066	1.5551	0.20448	0.030597	3.3512	-0.0592	0.0182	-0.0073	-0.0462	0.0165	0.9585
52.9273	26.1721	695.2739	68.9677	-238.8404	-58.9273	721.6884	-1.4701	0.49276	1.1538	-0.20279	0.28268	1.4914	-0.0592	0.0182	-0.0073	-0.0462	0.0165	0.9585
52.9389	28.8236	697.1348	67.3146	-239.5653	-55.8482	717.7451	-1.3933	-1.3734	0.78724	-0.8161	0.50374	-1.0505	-0.0592	0.0182	-0.0073	-0.0462	0.0165	0.9585
52.9504	31.6485	701.0087	65.858	-241.0866	-52.9156	715.8381	-1.2521	-3.7808	0.48802	-1.6342	0.65513	-4.2456	-0.0592	0.0182	-0.0073	-0.0462	0.0165	0.9585
52.962	34.7912	706.6029	64.6543	-243.2781	-50.1236	715.6027	-0.99308	-6.5722	0.2963	-2.5986	0.66875	-7.8951	-0.0592	0.0182	-0.0073	-0.0462	0.0165	0.9585
52.9736	38.3573	713.6587	63.7581	-246.0232	-47.4714	716.7328	-0.54007	-9.3509	0.24412	-3.5642	0.46679	-11.4994	-0.0592	0.0182	-0.0073	-0.0462	0.0165	0.9585
52.9851	42.4229	722.0106	63.209	-249.2408	-44.9606	719.0167	0.18971	-11.3978	0.38697	-4.2655	-0.057497	-14.1593	-0.0592	0.0182	-0.0073	-0.0462	0.0165	0.9585
52.9967	46.9629	731.5886	62.9708	-252.8864	-42.559	722.3879	1.2631	-11.5736	0.79326	-4.2812	-1.0195	-14.4458	-0.0592	0.0182	-0.0073	-0.0462	0.0165	0.9585
53.0083	51.8784	742.2682	63.0298	-256.8979	-40.2914	726.7386	2.7175	-8.2411	1.536	-3.0074	-2.5192	-10.3022	-0.0592	0.0182	-0.0073	-0.0462	0.0165	0.9585
53.0199	56.9637	753.7117	63.3105	-261.1386	-38.1572	731.7942	4.5146	0.70973	2.6807	0.33303	-4.6155	0.93596	-0.0592	0.0182	-0.0073	-0.0462	0.0165	0.9585
53.0314	62.052	765.0933	63.8031	-265.305	-36.2104	736.8386	6.487	17.7442	4.2505	6.6407	-7.2603	22.3912	-0.0592	0.0182	-0.0073	-0.0462	0.0165	0.9585
53.043	66.9779	775.0518	64.4092	-268.9134	-34.4219	740.6621	8.2751	45.3316	6.1913	16.8107	-10.2278	57.1945	-0.0592	0.0182	-0.0073	-0.0462	0.0165	0.9585
53.0546	71.6334	781.6498	65.0015	-271.2941	-32.726	741.5019	9.2438	85.2999	8.3026	31.493	-13.0052	107.6864	-0.0592	0.0182	-0.0073	-0.0462	0.0165	0.9585
53.0661	75.8768	782.6791	65.3119	-271.694	-30.9442	737.3896	8.4427	137.8132	10.1805	50.7147	-14.7062	174.1116	-0.0592	0.0182	-0.0073	-0.0462	0.0165	0.9585
53.0777	79.533	775.8416	64.99	-269.3443	-28.8433	726.2744	4.5688	199.9237	11.1196	73.3506	-13.964	252.8018	-0.0592	0.0182	-0.0073	-0.0462	0.0165	0.9585
53.0893	82.332	759.1036	63.6655	-263.5671	-26.2159	706.4093	-3.3081	264.3989	10.1681	96.6924	-9.2977	334.6775	-0.0592	0.0182	-0.0073	-0.0462	0.0165	0.9585
53.1009	83.9683	731.0484	61.035	-253.9004	-22.9336	676.6037	-13.9752	320.6445	6.2751	116.8471	-0.028565	406.3002	-0.0592	0.0182	-0.0073	-0.0462	0.0165	0.9585
53.1124	84.11	691.3212	57.0118	-240.2356	-19.0738	636.6558	-24.6822	361.9528	-0.36743	131.382	12.432	458.9314	-0.0592	0.0182	-0.0073	-0.0462	0.0165	0.9585
53.124	82.5216	640.8975	51.6867	-222.8977	-14.8134	587.564	-34.172	388.9996	-8.1666	140.5721	25.7664	493.1747	-0.0592	0.0182	-0.0073	-0.0462	0.0165	0.9585
53.1356	79.1861	581.6319	45.4002	-202.508	-10.4604	531.0919	-41.6846	406.3466	-16.692	146.1119	39.0491	514.6589	-0.0592	0.0182	-0.0073	-0.0462	0.0165	0.9585
53.1471	74.1989	516.0615	38.4983	-179.9157	-6.2614	469.5791	-47.2719	419.604	-24.3706	150.1459	50.5333	530.488	-0.0592	0.0182	-0.0073	-0.0462	0.0165	0.9585
53.1587	67.7545	447.0176	31.304	-156.0846	-2.4059	405.5797	-51.1307	433.4109	-30.8911	154.4237	59.8375	546.5722	-0.0592	0.0182	-0.0073	-0.0462	0.0165	0.9585
53.1703	60.0527	377.5354	24.1537	-132.0517	0.92237	341.8012	-53.6366	450.8122	-35.4826	160.1217	66.2792	566.7265	-0.0592	0.0182	-0.0073	-0.0462	0.0165	0.9585
53.1819	51.4495	310.5941	17.3539	-108.8474	3.6142	280.823	-55.0716	473.2629	-38.4712	167.7678	70.3418	592.7659	-0.0592	0.0182	-0.0073	-0.0462	0.0165	0.9585
53.1934	42.3948	248.8592	11.2959	-87.3931	5.5179	224.9484	-55.7605	501.1577	-40.4027	177.4501	72.8285	625.1816	-0.0592	0.0182	-0.0073	-0.0462	0.0165	0.9585
53.205	33.4627	194.3323	6.2591	-68.3893	6.6148	175.806	-55.9228	533.4918	-42.1212	188.731	74.8442	662.7408	-0.0592	0.0182	-0.0073	-0.0462	0.0165	0.9585
53.2166	25.1357	148.123	2.4924	-52.2224	6.8651	134.2711	-55.8442	568.379	-44.5554	200.8533	77.5485	703.1662	-0.0592	0.0182	-0.0073	-0.0462	0.0165	0.9585
53.2281	17.7939	110.3498	-0.015227	-38.9548	6.3995	100.3222	-55.6739	603.5739	-47.9868	212.9737	81.3693	743.6497	-0.0592	0.0182	-0.0073	-0.0462	0.0165	0.9585
53.2397	11.5263	80.4018	-1.3919	-28.3938	5.3484	73.3836	-55.5757	637.1657	-52.6199	224.4042	86.5393	781.8529	-0.0592	0.0182	-0.0073	-0.0462	0.0165	0.9585
53.2513	6.3457	57.2047	-1.9046	-20.1884	3.9378	52.4748	-55.461	668.0169	-57.7967	234.7873	92.3179	816.2726	-0.0592	0.0182	-0.0073	-0.0462	0.0165	0.9585
53.2629	2.1771	39.5845	-1.8375	-13.9407	2.3873	36.5834	-55.2464	695.4973	-63.2476	243.9411	98.3065	846.1116	-0.0592	0.0182	-0.0073	-0.0462	0.0165	0.9585
53.2744	-0.90967	26.4071	-1.4392	-9.2653	0.93126	24.6801	-54.7456	719.1967	-68.3663	251.7828	103.7714	870.8147	-0.0592	0.0182	-0.0073	-0.0462	0.0165	0.9585
53.286	-2.8677	16.7282	-0.94444	-5.837	-0.20568	15.9462	-53.8388	738.8494	-73.018	258.2426	108.482	890.1158	-0.0592	0.0182	-0.0073	-0.0462	0.0165	0.9585
53.2976	-3.6719	9.8245	-0.46342	-3.4046	-0.92377	9.6921	-52.4485	754.1376	-76.9026	263.2451	112.0953	903.6792	-0.0592	0.0182	-0.0073	-0.0462	0.0165	0.9585
53.3091	-3.6096	5.226	-0.099332	-1.7991	-1.2299	5.51	-50.5474	764.9075	-80.0322	266.7352	114.6103	911.4293	-0.0592	0.0182	-0.0073	-0.0462	0.0165	0.9585
53.3207	-3.0845	2.4865	0.17598	-0.859	-1.291	3.0022	-48.0948	771.065	-82.3614	268.692	115.9678	913.33	-0.0592	0.0182	-0.0073	-0.0462	0.0165	0.9585
53.3323	-2.3944	1.1367	0.34722	-0.41397	-1.1964	1.7808	-45.1099	772.8797	-83.9003	269.2137	116.1847	909.7806	-0.0592	0.0182	-0.0073	-0.0462	0.0165	0.9585
53.3439	-1.6933	0.70432	0.45472	-0.29311	-1.0358	1.4206	-41.5935	771.1069	-84.7063	268.5668	115.3263	901.7241	-0.0592	0.0182	-0.0073	-0.0462	0.0165	0.9585
53.3554	-1.0991	0.86238	0.49314	-0.37027	-0.84253	1.608	-37.6763	766.847	-84.7974	267.1371	113.471	890.5133	-0.0592	0.0182	-0.0073	-0.0462	0.0165	0.9585
53.367	-0.62757	1.3078	0.49043	-0.5345	-0.65328	2.0451	-33.4859	761.3208	-84.3869	265.3397	110.898	877.6474	-0.0592	0.0182	-0.0073	-0.0462	0.0165	0.9585
53.3786	-0.28944	1.8922	0.44802	-0.7279	-0.48005	2.6176	-29.242	755.6727	-83.5631	263.5597	107.7998	864.5312	-0.0592	0.0182	-0.0073	-0.0462	0.0165	0.9585
53.3901	-0.063992	2.4879	0.3895	-0.9116	-0.33822	3.193	-25.1819	750.8375	-82.5597	262.0995	104.5164	852.3257	-0.0592	0.0182	-0.0073	-0.0462	0.0165	0.9585
53.4017	0.055428	3.0419	0.323	-1.0736	-0.23188	3.7585	-21.5038	747.5811	-81.4407	261.2014	101.2126	841.9682	-0.0592	0.0182	-0.0073	-0.0462	0.0165	0.9585
53.4133	0.11147	3.5183	0.26385	-1.2092	-0.16325	4.256	-18.3635	746.3127	-80.3625	260.9865	98.1249	833.9866	-0.0592	0.0182	-0.0073	-0.0462	0.0165	0.9585
53.4249	0.084934	3.8912	0.21649	-1.3149	-0.14073	4.6737	-15.8294	747.0676	-79.3639	261.4505	95.344	828.4615	-0.0592	0.0182	-0.0073	-0.0462	0.0165	0.9585
53.4364	0.027401	4.1156	0.18799	-1.3797	-0.15743	4.9433	-13.8835	749.4519	-78.5071	262.444	92.9405	824.981	-0.0592	0.0182	-0.0073	-0.0462	0.0165	0.9585
53.448	-0.090378	4.1452	0.17689	-1.3856	-0.21909	5.0198	-12.4145	752.7554	-77.806	263.7207	90.9009	822.7529	-0.0592	0.0182	-0.0073	-0.0462	0.0165	0.9585
53.4596	-0.2285	3.8887	0.18963	-1.2982	-0.31889	4.7532	-11.2296	756.2026	-77.2285	265.0139	89.1372	820.8924	-0.0592	0.0182	-0.0073	-0.0462	0.0165	0.9585
53.4711	-0.4001	3.2711	0.21483	-1.0854	-0.44673	4.059	-10.1063	759.0022	-76.7833	266.0582	87.5868	818.4876	-0.0592	0.0182	-0.0073	-0.0462	0.0165	0.9585
53.4827	-0.56366	2.1453	0.26057	-0.69682	-0.59596	2.7316	-8.8373	760.4666	-76.4024	266.63	86.1082	814.7363	-0.0592	0.0182	-0.0073	-0.0462	0.0165	0.9585
53.4943	-0.72	0.42595	0.29508	-0.096257	-0.72793	0.67522	-7.2226	760.1033	-76.0797	266.5723	84.6227	809.0527	-0.0592	0.0182	-0.0073	-0.0462	0.0165	0.9585
53.5059	-0.78397	-1.9603	0.31233	0.74238	-0.80301	-2.2194	-5.1661	757.6312	-75.6987	265.8058	82.9741	801.0836	-0.0592	0.0182	-0.0073	-0.0462	0.0165	0.9585
53.5174	-0.73141	-4.944	0.27221	1.7965	-0.75814	-5.8471	-2.5782	753.0408	-75.2216	264.3336	81.0888	790.7814	-0.0592	0.0182	-0.0073	-0.0462	0.0165	0.9585
53.529	-0.41472	-8.2939	0.16071	2.9809	-0.52197	-9.9334	0.49239	746.4803	-74.5534	262.2089	78.8714	778.3116	-0.0592	0.0182	-0.0073	-0.0462	0.0165	0.9585
53.5406	0.25775	-11.4392	-0.06129	4.088	-0.0049703	-13.7667	3.9546	738.1353	-73.6713	259.4872	76.3129	763.9127	-0.0592	0.0182	-0.0073	-0.0462	0.0165	0.9585
53.5521	1.4704	-13.4239	-0.41179	4.7638	0.88409	-16.2207	7.6335	728.1953	-72.5639	256.2111	73.4411	747.8967	-0.0592	0.0182	-0.0073	-0.0462	0.0165	0.9585
53.5637	3.3242	-12.7237	-0.90548	4.4526	2.2025	-15.4342	11.3406	716.7526	-71.2581	252.385	70.3298	730.4834	-0.0592	0.0182	-0.0073	-0.0462	0.0165	0.9585
53.5753	5.9322	-7.2525	-1.5253	2.3959	3.9574	-8.9111	14.8862	703.9571	-69.8262	248.0217	67.1047	711.9847	-0.0592	0.0182	-0.0073	-0.0462	0.0165	0.9585
53.5869	9.2027	5.666	-2.2059	-2.3664	6.0369	6.5926	18.1472	689.9365	-68.3324	243.134	63.875	692.6555	-0.0592	0.0182	-0.0073	-0.0462	0.0165	0.9585
53.5984	12.9107	29.019	-2.8182	-10.9038	8.1868	34.6539	21.0066	674.8402	-66.8482	237.7467	60.7675	672.7849	-0.0592	0.0182	-0.0073	-0.0462	0.0165	0.9585
53.61	16.3999	65.6498	-3.1446	-24.2217	9.8963	78.739	23.4269	658.5795	-65.3643	231.8229	57.8186	652.3741	-0.0592	0.0182	-0.0073	-0.0462	0.0165	0.9585
53.6216	18.6308	117.342	-2.8494	-42.9342	10.3605	141.0274	25.3587	640.6423	-63.8118	225.196	55.0081	631.0067	-0.0592	0.0182	-0.0073	-0.0462	0.0165	0.9585
53.6331	17.9145	183.6242	-1.4715	-66.8269	8.4106	221.0409	26.805	620.0288	-61.9759	217.5549	52.1577	607.7376	-0.0592	0.0182	-0.0073	-0.0462	0.0165	0.9585
53.6447	12.6232	260.8888	1.5227	-94.5488	2.8214	314.4988	27.7065	595.4482	-59.6014	208.5022	49.0638	581.3443	-0.0592	0.0182	-0.0073	-0.0462	0.0165	0.9585
53.6563	2.8349	342.5466	6.7598	-123.6589	-7.1121	413.4607	28.064	565.6658	-56.3708	197.6719	45.4458	550.5856	-0.0592	0.0182	-0.0073	-0.0462	0.0165	0.9585
53.6679	-9.3977	419.8715	14.5531	-151.0179	-20.9544	507.0921	27.8846	529.9173	-52.1321	184.8524	41.1667	514.6472	-0.0592	0.0182	-0.0073	-0.0462	0.0165	0.9585
53.6794	-21.4857	485.6755	24.091	-174.1219	-36.7525	586.2495	27.2773	488.1462	-46.944	170.0614	36.2461	473.3411	-0.0592	0.0182	-0.0073	-0.0462	0.0165	0.9585
53.691	-31.6711	537.7599	33.9682	-192.263	-52.1494	647.945	26.3346	441.118	-41.1205	153.5647	30.9307	427.283	-0.0592	0.0182	-0.0073	-0.0462	0.0165	0.9585
